<?xml version="1.0" encoding="utf-8"?>
<!-- Generator: Adobe Illustrator 23.0.1, SVG Export Plug-In . SVG Version: 6.00 Build 0)  -->
<svg version="1.1" id="Calque_1" xmlns="http://www.w3.org/2000/svg" xmlns:xlink="http://www.w3.org/1999/xlink" x="0px" y="0px"
	 viewBox="0 0 474.2 465.9" style="enable-background:new 0 0 474.2 465.9;" xml:space="preserve">
<style type="text/css">
	.st0{display:none;}
	.st1{fill:#FFFFFF;}
	.st2{fill:#3AAA35;}
	.st3{fill:#1CA1A2;}
	.st4{fill:none;}
	.st5{display:inline;fill:#7A7CBA;}
	.st6{display:inline;fill:#068136;}
	.st7{display:inline;}
	.st8{fill:#D56D2B;}
	.st9{fill:#20A1A4;}
</style>
<g class="st0">
	
		<image style="display:inline;overflow:visible;opacity:0.59;enable-background:new    ;" width="498" height="491" xlink:href="F522858C.jpeg"  transform="matrix(0.998 0 0 0.998 -12.3647 -10.2659)">
	</image>
</g>
<g id="background">
	<rect y="0" class="st1" width="474.2" height="465.9"/>
</g>
<g>
	<path class="st2" d="M0,0v465.9h474.2V0H0z M464.6,457.2l-453.7,0.4V7.7h453.7V457.2z"/>
	<rect x="409.9" y="208.1" class="st3" width="36.7" height="94.3"/>
	<polygon class="st1" points="414.8,215.8 437.6,215.8 437.6,217.6 441.6,217.6 441.6,232.9 437.6,232.9 437.6,234.7 414.8,234.6 
		414.8,231 424.2,231 424.2,219.2 414.8,219.5 	"/>
	<polygon class="st3" points="437.3,221.6 437.3,229.4 434.2,229.4 434.2,231.2 428.2,231.2 428.2,219.5 433.9,219.5 434,221.5 	"/>
	<rect x="414.8" y="241" class="st1" width="26.9" height="3.9"/>
	<polygon class="st1" points="414.8,254.3 414.8,250.4 441.6,250.4 441.6,254.3 437.3,259.7 437.3,262.9 441.6,269.6 441.6,273.7 
		414.8,273 414.8,268.9 432.8,269.4 432.8,264.4 428.2,264.4 428.2,259.5 432.8,259.4 432.8,254.4 	"/>
	<polygon class="st1" points="414.8,294.4 414.8,278.9 441.6,279.2 441.6,294.4 437.3,294.4 437.3,283.1 429.9,283.1 429.9,287.4 
		426.1,287.4 426.1,283.2 418.7,283.1 418.8,294.4 	"/>
	<path class="st3" d="M430.3,205c0.7-1.3,1.4-2.6,1.9-4.1c1.5-0.8,3.3-1,5-0.5c0,1,1,2,2,2.1c2.8-1.9,5.3-4.7,6.5-7.9
		s1.3-6.7,0.5-10c-0.2-0.8-0.5-1.7-1-2.4c-0.5-0.8-1.2-1.6-1.8-2.3c-0.9-0.9-1.7-1.9-2.9-2.5c-1.2-0.6-2.5-0.8-3.8-1
		c-2.2-0.3-4.4-0.6-6.6-0.9c0-0.6,0-1.2,0-1.8c0-0.1,0-0.2,0-0.3c0-0.1-0.1-0.2-0.2-0.3c-0.8-0.9-1.9-1.6-3.1-2
		c-0.4-0.1-0.7-0.2-1.1-0.3c-1.1-0.1-2.2,0.7-2.5,1.7c-1.3,0.1-2.4,0.2-3.8,0.3c-0.9,0.1-1.8,0.1-2.6,0.5c-2,0.8-3.4,3-5.6,3.3
		c-0.4,0-0.7,0-1,0.2c-0.3,0.2-0.5,0.6-0.3,0.9c0.1,0.1,0.2,0.1,0.3,0.2c0.6,0.3,1.3,0.6,1.9,0.9c-0.2,0.4-0.7,0.6-1.1,0.7
		c-0.4,0.1-0.9,0.5-0.9,0.9c0,0.6,0.8,0.7,1.4,0.7c0.4,0,0.9,0,1.3,0c0.5,0,1,0,1.4-0.2s0.7-0.8,0.4-1.2c-0.5-0.1-0.9-0.8-0.9-1.4
		c0-0.6,0.4-1.1,0.7-1.5c1.4-1.7,3.5-2.7,5.6-3.1c0.5-0.1,1-0.1,1.5,0.1s0.8,0.8,0.6,1.3c-1.1,0.7-2.3,1.2-3.6,1.4
		c-0.8,0.1-1.6,0.1-2.4,0.4c-0.3,0.1-0.6,0.3-0.6,0.6c3,0.7,6.3,0,8.8-1.9c0.2-0.2,0.5-0.4,0.8-0.3c0.3,0.1,0.5,0.4,0.5,0.7
		c0,0.3-0.2,0.6-0.3,0.9c-0.3,0.4-0.5,0.9-0.9,1.2c-1.2,0.8-2.5,1.2-3.9,1.4c-0.7,0.1-1.4,0.1-2.1,0.1c-0.7,0-1.5,0-2.1,0.4
		c-0.6,0.4-1,1.3-0.5,1.9c0.2,0.3,0.5,0.4,0.9,0.4c0.7,0.2,1.4,0.2,2,0.2c1.1-0.1,2.3-0.3,3.4-0.4c2-0.1,3.8,1.5,4.5,3.4
		s0.6,4,0.1,5.9c-0.4,1.4-0.9,2.9-0.5,4.3c0.3,1,1.1,1.8,1.9,2.4c0.5,0.3,1.1,0.8,0.9,1.4c-2.2,0.9-4.7,0.4-7,0.2
		c-0.3,0-0.7-0.1-1,0.1c-0.3,0.2-0.5,0.6-0.3,0.9c1,0.4,2,0.9,2.5,1.9c0.2,0.4,0.3,0.7,0.4,1.1c0.5,1.2,1.7,2,3,2.2
		C427.9,206,429.2,205.6,430.3,205z"/>
	<path class="st4" d="M421.5,186.4c0.4,0.1,0.8,0.5,0.9,0.9c0.1,0.4-0.1,0.9-0.3,1.3c-0.2,0.3-0.4,0.5-0.8,0.6c-0.3,0.1-0.7,0.1-1,0
		c-0.3-0.2-0.4-0.4-0.5-0.7C419.4,187.3,420.1,186,421.5,186.4z"/>
	<path class="st3" d="M425.5,186.1c-0.4-1.1-1.3-2-2.1-2.8c-0.2-0.2-0.5-0.4-0.8-0.6c-1.3-0.6-2.6,0.1-3.6,0.7
		c-1.1,0.6-2,1.7-2.4,2.9c-0.5,1.6-0.1,3.4,0.9,4.6c0.3,0.4,0.7,0.8,1.2,1.1c0.9,0.7,2.1,1.1,3.2,0.8c1.1-0.3,1.9-1.4,2.6-2.3
		c0.3-0.4,0.6-0.7,0.9-1.1C426,188.5,425.9,187.2,425.5,186.1z M424.3,188.5c-0.2,0.8-0.6,1.5-1.2,1.9c-0.6,0.5-1.4,0.7-2.2,0.5
		c-0.6-0.1-1.1-0.5-1.5-0.8c-0.3-0.2-0.5-0.4-0.7-0.7c-0.5-0.6-0.6-1.5-0.4-2.3c0.4-1.2,1.9-2.2,3.1-2.4c0.9-0.1,1.9,0.4,2.4,1.1
		C424.4,186.6,424.5,187.6,424.3,188.5z"/>
	<path class="st3" d="M420,187.1c0.2-0.2,0.6-0.3,0.9-0.3c0.1,0,0.3,0,0.4,0c0.2,0,0.4,0,0.5,0.1c0.3,0.1,0.4,0.4,0.5,0.7
		c0.1,0.3,0.2,0.7,0.1,1c-0.1,0.2-0.2,0.4-0.4,0.6c-0.1,0.1-0.2,0.2-0.3,0.4c-0.1,0.1-0.2,0.3-0.4,0.3c-0.3,0.1-0.6-0.1-0.8-0.3
		C420.2,189,419.3,187.8,420,187.1z"/>
	<path class="st3" d="M416.7,201.8c-1.1-0.1-2.1-0.5-3.1-0.9c-1.1-0.4-2.3-0.9-3.4-0.5c-0.1,0-0.2,0.1-0.2,0.2c0,0.1,0,0.2,0.1,0.2
		c0.5,0.9,1.4,1.5,2.2,1.9c1.5,0.8,3.1,1.2,4.8,1.2c0.6,0,1.2,0,1.8-0.2c0.5-0.1,1-0.4,1.2-0.9c0.3-0.6,0-1.4-0.7-1.3
		C418.5,201.7,417.7,201.9,416.7,201.8z"/>
	<rect x="28.9" y="168.9" class="st3" width="36.7" height="94.3"/>
	<polygon class="st1" points="60.7,255.4 37.8,255.4 37.8,253.7 33.8,253.7 33.8,238.3 37.8,238.3 37.8,236.5 60.7,236.7 
		60.7,240.2 51.3,240.2 51.3,252 60.7,251.7 	"/>
	<polygon class="st3" points="38.2,249.6 38.2,241.9 41.3,241.9 41.3,240.1 47.3,240.1 47.3,251.7 41.6,251.7 41.4,249.8 	"/>
	<rect x="33.8" y="226.4" class="st1" width="26.8" height="3.9"/>
	<polygon class="st1" points="60.7,217 60.7,220.9 33.8,220.9 33.8,217 38.2,211.6 38.2,208.3 33.8,201.6 33.8,197.6 60.7,198.2 
		60.7,202.4 42.7,201.9 42.7,206.8 47.3,206.8 47.3,211.8 42.7,211.9 42.7,216.8 	"/>
	<polygon class="st1" points="60.7,176.8 60.7,192.4 33.8,192.1 33.8,176.8 38.2,176.8 38.2,188.2 45.6,188.2 45.6,183.9 
		49.3,183.9 49.4,188 56.8,188.2 56.7,176.8 	"/>
	<path class="st3" d="M45.2,266.2c-0.7,1.3-1.4,2.6-1.9,4.1c-1.5,0.8-3.3,1-5,0.5c0-1-1-2-2-2c-2.8,1.9-5.3,4.7-6.5,7.9
		s-1.3,6.7-0.5,10c0.2,0.8,0.5,1.7,1,2.4c0.5,0.8,1.2,1.6,1.8,2.3c0.9,0.9,1.7,1.9,2.9,2.5c1.2,0.6,2.5,0.8,3.8,1
		c2.2,0.3,4.4,0.6,6.6,1c0,0.6,0,1.2,0,1.8c0,0.1,0,0.2,0,0.3c0,0.1,0.1,0.2,0.2,0.3c0.8,0.9,1.9,1.6,3.1,2c0.4,0.1,0.7,0.2,1.1,0.3
		c1.1,0.1,2.2-0.7,2.5-1.7c1.3-0.1,2.4-0.2,3.8-0.3c0.9-0.1,1.8-0.1,2.6-0.5c2-0.8,3.4-3,5.6-3.3c0.3,0,0.7,0,1-0.2
		c0.3-0.2,0.5-0.6,0.3-0.9c-0.1-0.1-0.2-0.1-0.3-0.2c-0.7-0.3-1.3-0.6-1.9-0.9c0.2-0.4,0.7-0.6,1.1-0.7s0.9-0.5,0.9-0.9
		c-0.1-0.6-0.8-0.7-1.4-0.7c-0.4,0-0.9,0-1.3,0c-0.5,0-1,0-1.3,0.2c-0.4,0.2-0.7,0.8-0.4,1.2c0.5,0,0.9,0.8,0.9,1.4s-0.3,1-0.7,1.5
		c-1.4,1.7-3.5,2.7-5.6,3.1c-0.5,0.1-1,0.1-1.5-0.1s-0.8-0.8-0.6-1.3c1.1-0.7,2.3-1.2,3.6-1.4c0.8-0.1,1.6-0.1,2.4-0.4
		c0.3-0.1,0.6-0.3,0.6-0.6c-3-0.7-6.3,0-8.8,1.9c-0.2,0.2-0.5,0.4-0.8,0.3c-0.3,0-0.5-0.4-0.5-0.7c0-0.3,0.2-0.6,0.3-0.9
		c0.3-0.5,0.5-0.9,0.9-1.2c1.2-0.8,2.5-1.2,3.9-1.4c0.7-0.1,1.4-0.1,2.1-0.1c0.7,0,1.5,0,2.1-0.4s1-1.3,0.5-1.9
		c-0.2-0.3-0.5-0.4-0.9-0.5c-0.7-0.2-1.3-0.2-2-0.2c-1.1,0.1-2.3,0.3-3.4,0.4c-2,0-3.8-1.5-4.5-3.4c-0.7-1.9-0.6-4-0.1-5.9
		c0.4-1.4,0.9-2.9,0.5-4.3c-0.3-1-1.1-1.8-1.9-2.4c-0.5-0.3-1.1-0.8-0.9-1.4c2.2-1,4.7-0.4,7-0.2c0.3,0,0.7,0.1,1-0.1
		c0.3-0.2,0.5-0.6,0.3-0.9c-1-0.4-2-0.9-2.5-1.9c-0.2-0.4-0.3-0.7-0.4-1.1c-0.5-1.2-1.7-2-3-2.2S46.3,265.6,45.2,266.2z"/>
	<path class="st4" d="M54,284.9c-0.4-0.1-0.8-0.5-0.9-0.9c-0.1-0.4,0.1-0.9,0.3-1.3c0.2-0.3,0.4-0.5,0.8-0.6s0.7-0.1,1,0
		c0.3,0.2,0.4,0.5,0.5,0.7C56.1,284,55.3,285.2,54,284.9z"/>
	<path class="st3" d="M50,285.1c0.4,1.1,1.3,2,2.1,2.8c0.2,0.2,0.5,0.4,0.8,0.5c1.3,0.6,2.6-0.1,3.7-0.7c1.1-0.6,2-1.7,2.4-2.9
		c0.5-1.6,0.1-3.4-0.9-4.6c-0.3-0.4-0.7-0.8-1.2-1.1c-0.9-0.7-2.1-1.1-3.2-0.8c-1.1,0.3-1.9,1.4-2.7,2.3c-0.3,0.4-0.6,0.7-0.9,1.1
		C49.5,282.7,49.5,284,50,285.1z M51.2,282.7c0.2-0.8,0.6-1.5,1.2-1.9c0.6-0.5,1.4-0.7,2.2-0.5c0.6,0.1,1.1,0.5,1.5,0.8
		c0.3,0.2,0.5,0.4,0.7,0.7c0.5,0.6,0.6,1.5,0.4,2.3c-0.4,1.2-1.9,2.2-3.1,2.4c-0.9,0.1-1.9-0.4-2.4-1.1
		C51.1,284.6,51,283.6,51.2,282.7z"/>
	<path class="st3" d="M55.5,284.1c-0.2,0.2-0.6,0.3-0.9,0.3c-0.1,0-0.3,0-0.4,0c-0.2,0-0.4,0-0.5,0c-0.3-0.1-0.4-0.4-0.5-0.7
		c-0.1-0.3-0.2-0.7-0.1-1c0.1-0.2,0.2-0.4,0.4-0.6c0.1-0.1,0.2-0.2,0.3-0.4c0.1-0.1,0.2-0.3,0.4-0.3c0.3-0.1,0.6,0.1,0.8,0.3
		C55.3,282.3,56.2,283.4,55.5,284.1z"/>
	<path class="st3" d="M58.8,269.5c1.1,0.1,2.1,0.5,3.1,0.9c1.1,0.4,2.3,0.9,3.4,0.5c0.1,0,0.2-0.1,0.2-0.2c0-0.1,0-0.2-0.1-0.2
		c-0.5-0.9-1.3-1.5-2.2-1.9c-1.5-0.8-3.1-1.2-4.8-1.2c-0.6,0-1.2,0-1.8,0.2c-0.5,0.1-1,0.4-1.2,0.9c-0.3,0.6,0,1.4,0.7,1.3
		C57,269.6,57.8,269.3,58.8,269.5z"/>
</g>
<g id="R_x5F_poly" class="st0">
	<rect x="202.1" y="27.2" class="st5" width="72.8" height="412.7"/>
	<rect x="202.1" y="412" class="st6" width="72.8" height="28"/>
	<rect x="202.1" y="27.2" class="st6" width="72.8" height="27.2"/>
</g>
<g id="R_x5F_alu" class="st0">
	<g class="st7">
		<polygon class="st8" points="360.8,54.6 368.6,54.6 368.6,61.9 321.6,61.9 321.6,276.6 305.3,276.6 305.3,187.3 297.7,187.3 
			297.7,276.5 291.5,276.5 290.4,276.5 290.4,187.2 282.9,187.2 282.9,276.4 281.6,276.3 281.6,276.5 276.4,276.5 276.4,187.2 
			268.8,187.2 268.8,276.4 262.6,276.4 261.5,276.4 261.5,187.1 253.9,187.1 253.9,276.2 247.7,276.2 247.7,275.2 247.8,275.2 
			247.8,187.1 238.9,187.1 238.9,276.5 233.1,276.5 233.1,187.3 225.5,187.3 225.5,276.4 223.9,276.4 223.9,276.6 218.6,276.6 
			218.6,187.4 211,187.4 211,276.5 204.8,276.5 203.8,276.5 203.8,187.2 196.2,187.2 196.2,276.4 189.9,276.3 190,275.3 190,275.3 
			190,187.2 181.1,187.2 181.1,276.7 175.4,276.7 175.4,187.4 167.8,187.4 167.8,276.5 161.1,276.5 161.1,187.6 154,187.6 
			154,401.7 95.9,401.7 95.9,411.5 88.6,411.5 88.6,439.5 115.7,439.5 115.7,412.3 109.4,412.3 109.4,404.9 155.8,404.5 
			155.8,189.3 159.7,189.3 159.7,278.8 169.3,278.8 169.3,189.6 173.5,189.6 173.5,278.8 182.9,278.8 182.9,189.8 187.4,189.8 
			187.4,190.4 187.9,190.4 187.9,278.6 197.7,278.6 197.7,189.5 201.9,189.5 201.9,278.6 202.4,278.6 211.9,278.6 212.5,278.6 
			212.6,189.6 216.7,189.6 216.7,278.7 216.9,278.7 216.9,278.6 227.1,278.6 227.1,189.5 231.2,189.5 231.2,278.6 240.7,278.6 
			240.7,189.6 245.1,189.6 245.1,190.3 245.6,190.3 245.6,278.5 255.4,278.5 255.4,189.4 259.6,189.4 259.6,278.5 260.2,278.5 
			269.6,278.5 270.3,278.5 270.3,189.5 274.5,189.5 274.5,278.6 284.4,278.6 284.4,189.5 288.6,189.5 288.6,278.6 289.1,278.6 
			298.5,278.6 299.2,278.6 299.2,189.6 303.4,189.6 303.4,278.7 313.4,278.7 313.4,278.9 323.6,278.9 323.6,64.6 381.6,64.6 
			381.6,54.4 387.9,54.4 387.9,27.7 361,27.7 		"/>
		<path class="st8" d="M360,26.7l-0.3,28.9h7.9v5.3h-47v214.8h-14.3v-89.3h-9.6v89.2h-1v0h-4.3v-89.3h-9.6v89.2l-4.5,0v-89.1h-9.6
			v89.2h-1v0h-4.3v-89.3h-9.6v89.2l-4.2,0v-89.1h-10.9v89.5h-3.8v-89.3h-9.6v89.2l-4.9-0.1v-89h-9.6v89.2h-1v0h-4.3v-89.3h-9.6v89.2
			l-4.2,0v-89.1h-10.9v89.5h-3.8v-89.3h-9.6v89.2l-4.7-0.1v-88.9H153v214.1H94.9v9.8h-7.3v30h29.1v-29.3h-6.2v-5.4l46.4-0.4V190.3
			h1.9v89.4h11.6v-89.1h2.2v89.1H184v-89h2.9v88.7h0.7v0.1h11.1v-89.1h2.2v89.1h1.5h9.4h1.6l0-88.9h2.2v89.1h11v-0.1h1.3v-89.1h2.2
			v89.1h11.5v-89h2.9v88.7h0.7v0.1h11.1v-89.1h2.2v89.1h1.5h9.4h1.6l0-88.9h2.2v89.1h11v0h0.9v-89.1h2.2v89.1h1.5h9.4h1.6l0-88.9
			h2.2v89.1h9.9v0.1h12.3V65.6h58V55.4h6.3V26.7H360z M387.9,54.4h-6.3v10.1h-58v214.3h-10.2v-0.1h-10v-89.1h-4.2l0,88.9h-0.6h-9.4
			h-0.5v-89.1h-4.2v89.1h-9.9v-89.1h-4.2l0,88.9h-0.6h-9.4h-0.5v-89.1h-4.2v89.1h-9.8v-88.1h-0.5v-0.7h-4.4v89h-9.5v-89.1H227v89.1
			h-10.1v0.1h-0.2v-89.1h-4.2l0,88.9h-0.6h-9.4h-0.5v-89.1h-4.2v89.1h-9.8v-88.1h-0.5v-0.7h-4.4v89h-9.5v-89.1h-4.2v89.1h-9.6v-89.4
			h-3.9v215.1l-46.4,0.4v7.4h6.2v27.2h-27v-28h7.3v-9.8H154V187.6h7.1v88.9l6.7,0.1v-89.2h7.6v89.3h5.8v-89.5h8.9v88.1h0l0,1
			l6.2,0.1v-89.2h7.6v89.3h1.1l6.2,0v-89.2h7.6v89.3h5.3v-0.3l1.7,0v-89.2h7.6v89.3h5.8v-89.5h8.9v88.1h0l0,1l6.2,0.1v-89.2h7.6
			v89.3h1.1l6.2,0v-89.2h7.6v89.3h5.3v-0.2l1.2,0v-89.2h7.6v89.3h1.1l6.2,0v-89.2h7.6v89.3h16.3V61.9h47v-7.3h-7.9l0.3-26.9h26.9
			L387.9,54.4L387.9,54.4z"/>
	</g>
</g>
<g id="R_x5F_Sens">
	<g>
		<path class="st9" d="M312.6,411.4v-39.3c0,0,0.6-4.9-4.9-4.9s-22.9,0-22.9,0v-79.4h-9v2.8h-60v1h60v3.2h-60v1h60v3.5h-59.5v1h59.5
			v4.9h-64.7v1h64.7v1.8h-59.6v1h59.6v1.1h-59.9v1h59.9v3.5h-59.4v1h59.4v4.9h-64.6v1h64.6v1.8h-59.5v1h59.5v3.5h-58.9v1h58.9v4.9
			h-64.1v1h64.1v1.7h-60.7v1h60.7v3.5h-60.1v1h60.1v4.9h-65.4v1h65.4v1.8h-60.3v1h60.3v3.5h-59.7v1h59.7v4.9h-64.9v1h64.9v5.1
			c0,0-5.4,2.7-5.4,6.4h-54.3v1h54.5c0.4,1.5,1.9,3.2,5.2,4.9h25.9v32.9h-9v28.1h28v-28.1L312.6,411.4L312.6,411.4z"/>
		<path class="st9" d="M205.9,370.6h53.7v-1h-54.3c-0.9-1.1-2-2.1-2.9-2.7h56.1v-1H201v-8h60.7v-1H201v-4.1h61.7v-1H201v-7.1h60.3
			v-1H201v-4.1h61.3v-1H201v-12h62.5v-1H201v-7.1h61.1v-1H201v-4.1h62.1v-1H201v-9.2h61v-1h-61V298h62v-1h-62v-3.2h62v-1h-62v-4.9
			h-9v79.4c0,0-17.4,0-22.9,0s-4.9,4.9-4.9,4.9v39.3h-8v28.1h28v-28.1h-9v-32.9H201c1.6-0.8,2.8-1.7,3.6-2.5v0.5h57.1v-1h-56.6
			C206.6,373.7,206.6,372.1,205.9,370.6z"/>
		<rect x="215.6" y="364" class="st9" width="60.3" height="1"/>
		<rect x="201.2" y="330.7" class="st9" width="61.3" height="1"/>
	</g>
	<g>
		<path class="st9" d="M164.2,56v39.3c0,0-0.6,4.9,4.9,4.9s22.9,0,22.9,0v79.4h9v-2.8h60v-1h-60v-3.2h60v-1h-60v-3.5h59.5v-1H201
			v-4.9h64.7v-1H201v-1.8h59.6v-1H201v-1.1h59.9v-1H201v-3.5h59.4v-1H201v-4.9h64.6v-1H201V144h59.5v-1H201v-3.5h58.9v-1H201v-4.9
			h64.1v-1H201v-1.7h60.7v-1H201v-3.5h60.1v-1H201v-4.9h65.4v-1H201v-1.8h60.3v-1H201v-3.5h59.7v-1H201v-4.9h64.9v-1H201v-5.1
			c0,0,5.4-2.7,5.4-6.4h54.3v-1h-54.5c-0.4-1.6-1.9-3.2-5.2-4.9h-25.9V56h9V27.9h-28V56H164.2z"/>
		<path class="st9" d="M270.9,96.7h-53.7v1h54.3c0.9,1.1,2,2.1,3,2.7h-56.1v1h57.4v8h-60.7v1h60.7v4.1h-61.7v1h61.7v7.1h-60.3v1
			h60.3v4.1h-61.3v1h61.3v12.1h-62.5v1h62.5v7.1h-61.1v1h61.1v4.1h-62.1v1h62.1v9.2h-61v1h61v4.1h-62v1h62v3.2h-62v1h62v4.9h9v-79.4
			c0,0,17.4,0,22.9,0s4.9-4.9,4.9-4.9V56h8V27.9h-28V56h9V89h-25.8c-1.6,0.8-2.8,1.7-3.6,2.5v-0.5h-57.1v1h56.6
			C270.2,93.7,270.2,95.3,270.9,96.7z"/>
		<rect x="201" y="102.4" class="st9" width="60.3" height="1"/>
		<rect x="214.3" y="135.7" class="st9" width="61.3" height="1"/>
	</g>
</g>
</svg>
